<?xml version="1.0" encoding="UTF-8"?>
<svg id="beastSaberLogo" xmlns="http://www.w3.org/2000/svg" version="1.1" viewBox="0 0 2173.13 2500">
  <!-- Created by TheCzar1994 . Adobe Illustrator 29.2.1 . SVG Version: 2.1.0 Build 116  -->
  <defs>
    <style>
      .st0 {
        fill: #fff;
      }
    </style>
  </defs>
  <path class="st0" d="M1917.09,1413.67h-78.9c-7.61,0-13.84,6.23-13.84,13.84v460.23l-189.63,96.2c-6.92,3.46-9.69,11.77-6.23,18.69l35.99,69.9c3.46,6.92,11.77,9.69,18.69,6.23l234.62-119.04h1.38c6.92-2.08,11.77-7.61,11.77-14.53v-517.68c0-7.61-5.54-14.53-13.84-14.53v.69ZM245.02,756.2v266.45c-1.38,6.23,2.08,12.46,7.61,15.23l247.07,125.27c6.92,3.46,15.23.69,18.69-6.23l35.99-69.9c3.46-6.92.69-15.23-6.23-18.69l-195.86-99.66v-157.1l350.88,178.56v495.53c0,7.61,6.23,13.84,13.84,13.84h78.9c7.61,0,13.84-6.23,13.84-13.84v-556.43c0-7.61-6.23-13.84-13.84-13.84h-.69l-533.59-271.3c-6.92-3.46-15.23-.69-18.69,6.23l2.77,109.35M515.62,1984.64l-185.48-94.12v-462.31c0-7.61-6.23-13.84-13.84-13.84h-78.9c-7.61,0-13.84,6.23-13.84,13.84v517.68s1.38,6.92,3.46,9c1.38,2.08,3.46,3.46,5.54,4.84l235.31,119.04c6.92,3.46,15.23.69,18.69-6.23l35.99-69.9c3.46-6.92,0-15.23-6.23-18.69l-.69.69ZM2173.16,112.56V8.75c-4.15-6.92-12.46-9.69-19.38-6.23l-723.22,367.49-339.12-172.33c-4.84-2.08-10.38-2.08-14.53,1.38l-336.35,170.94L22.17,5.98c-6.92-3.46-15.92-.69-19.38,6.23L.02,114.64C.02,104.95.02,123.63.02,114.64v1060.96s1.38,6.92,3.46,9c1.38,2.77,3.46,4.84,6.23,6.23l447.08,227v327.35c0,7.61,6.23,13.84,13.84,13.84h78.9c7.61,0,13.84-6.23,13.84-13.84v-379.95c2.08-6.23-.69-13.84-6.92-16.61l-449.85-228.39V169.31l579.96,294.13,3.46,6.92v300.37c0,7.61,6.23,13.84,13.84,13.84h78.9c7.61,0,13.84-6.23,13.84-13.84v-310.05l233.92-119.04v2012.57l-234.62-119.04v-496.22c0-7.61-6.23-13.84-13.84-13.84h-78.9c-7.61,0-13.84,6.23-13.84,13.84v551.59c0,6.23,2.77,11.77,7.61,13.84l384.8,195.17c4.84,2.08,9.69,2.08,13.84-.69l382.03-193.78c6.92-3.46,9.69-11.77,6.23-18.69v-547.44c0-7.61-6.23-13.84-13.84-13.84h-78.9c-7.61,0-13.84,6.23-13.84,13.84v497.61l-239.46,121.81V341.64l239.46,121.81v307.29c0,7.61,6.23,13.84,13.84,13.84h78.9c7.61,0,13.84-6.23,13.84-13.84v-307.98l581.35-295.52v950.92l-450.54,228.39s-5.54,4.15-6.92,6.92c-2.08,2.77-3.46,6.23-3.46,9.69v381.34c0,7.61,6.23,13.84,13.84,13.84h78.9c7.61,0,13.84-6.23,13.84-13.84v-327.35l450.54-228.39c6.23-1.38,10.38-7.61,10.38-13.84V111.87"/>
  <path class="st0" d="M1931.06,756.2v266.45c1.39,6.23-2.09,12.46-7.66,15.23l-248.59,125.27c-6.96,3.46-15.32.69-18.8-6.23l-36.21-69.9c-3.48-6.92-.7-15.23,6.27-18.69l197.06-99.66v-157.1l-353.03,178.56v495.53c0,7.61-6.27,13.84-13.93,13.84h-79.38c-7.66,0-13.93-6.23-13.93-13.84v-556.43c0-7.61,6.27-13.84,13.93-13.84h.7l536.86-271.3c6.96-3.46,15.32-.69,18.8,6.23l-2.79,109.35"/>
</svg>