<?xml version="1.0" encoding="UTF-8"?>
<svg id="Layer_1" xmlns="http://www.w3.org/2000/svg" version="1.1" viewBox="0 0 2194.76 2481.88">
  <!-- Created by TheCzar1994 . Adobe Illustrator 29.2.1 . SVG Version: 2.1.0 Build 116  -->
  <defs>
    <style>
      .st0 {
        fill: #fff;
      }
    </style>
  </defs>
  <path class="st0" d="M.46.49v1158.53l465.58,236.2v346.48h104.66v-407.83l-465.18-237.8V152.07s0-14.84,22.06-13.63c22.06,1.2,571.45,290.33,571.45,290.33v328.03h104.26v-326.03l223.37-114.29s14.04-4.01,20.85,10.43,0,2009.09,0,2009.09c0,0-7.22,16.44-21.65,10.83-14.44-5.61-224.17-114.69-224.17-114.69v-518.51h-104.66v577.86l375.75,190.88h52.93l372.54-190.88v-576.26h-102.26v518.51l-214.54,108.68s-29.27,8.82-30.08-11.63,0-2005.08,0-2005.08c0,0,9.22-18.45,26.07-8.42,16.84,10.03,218.55,113.89,218.55,113.89v325.22h102.26v-322.82l567.84-288.73s26.47-10.83,26.87,15.24c.4,26.07,0,937.17,0,937.17l-463.97,234.19v407.03h103.06v-342.07l463.17-233.79V.49h-83.01l-660.87,336.45-352.49-174.04-350.09,175.64L87.48.49H.46Z"/>
  <polygon class="st0" points="254.04 588.51 799.95 865.21 799.95 1441.07 699.7 1441.07 699.7 925.37 355.89 750.26 339.05 760.15 339.05 910.66 535.9 1014.74 490.63 1099.14 235.32 965.47 235.32 602.68 254.04 588.51"/>
  <polygon class="st0" points="1946.64 588.51 1398.4 865.21 1398.4 1441.07 1499.08 1441.07 1499.08 925.37 1844.35 750.26 1861.26 760.15 1861.26 910.66 1663.57 1014.74 1709.03 1099.14 1965.43 965.47 1965.43 602.68 1946.64 588.51"/>
  <polygon class="st0" points="1965.43 1380.32 1965.43 1924.49 1705.31 2057.23 1659.19 1966.8 1859.3 1863.34 1859.3 1380.32 1965.43 1380.32"/>
  <polygon class="st0" points="235.32 1380.32 235.32 1924.49 496.07 2057.23 542.3 1966.8 341.71 1863.34 341.71 1380.32 235.32 1380.32"/>
</svg>