<svg width="227" height="37" viewBox="0 0 227 37" fill="none" xmlns="http://www.w3.org/2000/svg">
<g clip-path="url(#clip0_719_109)">
<path d="M41.21 5.88013H46.47C50.68 5.88013 53.2 8.51013 53.2 12.3601C53.2 15.1001 51.9 17.2201 49.64 18.2301C52.41 19.0201 54.1 21.2901 54.1 24.4601C54.1 28.4601 51.4 31.0801 47.19 31.0801H41.21V5.88013ZM42.22 6.89013V17.8301H46.47C50.07 17.8301 52.23 15.6001 52.23 12.3601C52.23 9.12013 50.03 6.89013 46.47 6.89013H42.22ZM42.22 18.8001V30.1001H47.19C50.79 30.1001 53.13 27.8701 53.13 24.4501C53.13 21.0301 50.79 18.8001 47.19 18.8001H42.22Z" fill="url(#paint0_linear_719_109)"/>
<path d="M59.9 31.0801V5.88013H70.09V6.89013H60.91V16.9001H70.09V17.9101H60.91V30.0801H70.09V31.0901H59.9V31.0801Z" fill="url(#paint1_linear_719_109)"/>
<path d="M92.62 31.0801H91.5L87.76 20.6101H78.29L74.58 31.0801H73.46L82.49 5.88013H83.57L92.6 31.0801H92.62ZM78.65 19.6001H87.4L83.04 7.33013L78.65 19.6001Z" fill="url(#paint2_linear_719_109)"/>
<path d="M108.21 11.9701C108.21 8.3001 105.91 6.3501 102.81 6.3501C99.71 6.3501 97.19 8.6501 97.19 11.6801C97.19 14.7101 98.95 16.0701 102.16 16.9401L103.74 17.3701C108.35 18.6301 110.65 20.1801 110.65 24.3501C110.65 28.8901 106.98 31.6201 102.8 31.6201C98.62 31.6201 94.99 28.7401 94.99 23.5601H96.07C96.07 28.0601 99.09 30.6201 102.8 30.6201C106.72 30.6201 109.57 28.1401 109.57 24.3601C109.57 21.6201 108.53 19.6401 103.56 18.3801L101.87 17.9501C98.13 16.9801 96.11 14.9301 96.11 11.6901C96.11 7.9101 99.31 5.3501 102.81 5.3501C106.63 5.3501 109.29 7.7601 109.29 11.9701H108.21Z" fill="url(#paint3_linear_719_109)"/>
<path d="M120.34 6.89013V31.0801H119.33V6.89013H113.1V5.88013H126.49V6.89013H120.33H120.34Z" fill="url(#paint4_linear_719_109)"/>
<path d="M140.25 12.4701C140.25 10.4201 139.06 9.12008 137.12 9.12008C135.18 9.12008 133.84 10.4501 133.84 12.1401C133.84 13.8301 134.67 14.8001 137.12 15.4901L138.31 15.8101C142.52 16.9601 145.65 18.6501 145.65 23.7301C145.65 28.3001 142.05 31.5801 137.19 31.5801C132.33 31.5801 128.8 28.3401 128.8 23.1601H132.72C132.72 25.7901 134.63 27.8001 137.18 27.8001C139.92 27.8001 141.64 26.0401 141.64 23.7301C141.64 21.4201 140.2 20.3801 137.21 19.5501L136.09 19.2601C131.91 18.1101 129.93 15.7301 129.93 12.1301C129.93 8.03008 132.99 5.33008 137.09 5.33008C141.55 5.33008 144.11 7.78008 144.11 12.4601H140.22L140.25 12.4701Z" fill="url(#paint5_linear_719_109)"/>
<path d="M169.55 31.0801H165.16L162.21 22.3001H154.65L151.59 31.0801H147.2L156.38 5.88013H160.66L169.55 31.0801ZM155.94 18.5201H160.91L158.46 11.2901L155.94 18.5201Z" fill="url(#paint6_linear_719_109)"/>
<path d="M173.3 5.88013H180.07C184.46 5.88013 187.23 8.69013 187.23 12.6801C187.23 15.2001 186.22 16.8201 184.6 17.7601C186.83 18.7701 188.27 20.7801 188.27 23.7401C188.27 28.2001 185.03 31.0801 180.53 31.0801H173.29V5.88013H173.3ZM177.4 9.66013V16.3901H179.81C181.97 16.3901 183.05 15.0901 183.05 13.0101C183.05 10.9301 181.97 9.66013 179.81 9.66013H177.4ZM177.4 20.2801V27.1601H180.28C182.44 27.1601 183.95 25.8601 183.95 23.7401C183.95 21.6201 182.44 20.2801 180.28 20.2801H177.4Z" fill="url(#paint7_linear_719_109)"/>
<path d="M193.06 31.0801V5.88013H205.66V9.66013H197.16V16.0701H205.66V19.8101H197.16V27.3301H205.66V31.0701H193.06V31.0801Z" fill="url(#paint8_linear_719_109)"/>
<path d="M211.06 5.88013H218.76C223.3 5.88013 226.46 8.76013 226.46 13.2201C226.46 17.2901 223.76 19.6301 219.84 19.9901L226.89 31.0801H222.1L215.15 19.3801V31.0801H211.05V5.88013H211.06ZM215.16 9.80013V16.6401H218.51C220.71 16.6401 222.18 15.3401 222.18 13.2201C222.18 11.1001 220.7 9.80013 218.51 9.80013H215.16Z" fill="url(#paint9_linear_719_109)"/>
<path d="M41.21 5.88013H46.47C50.68 5.88013 53.2 8.51013 53.2 12.3601C53.2 15.1001 51.9 17.2201 49.64 18.2301C52.41 19.0201 54.1 21.2901 54.1 24.4601C54.1 28.4601 51.4 31.0801 47.19 31.0801H41.21V5.88013ZM42.22 6.89013V17.8301H46.47C50.07 17.8301 52.23 15.6001 52.23 12.3601C52.23 9.12013 50.03 6.89013 46.47 6.89013H42.22ZM42.22 18.8001V30.1001H47.19C50.79 30.1001 53.13 27.8701 53.13 24.4501C53.13 21.0301 50.79 18.8001 47.19 18.8001H42.22Z" fill="white"/>
<path d="M59.9 31.0801V5.88013H70.09V6.89013H60.91V16.9001H70.09V17.9101H60.91V30.0801H70.09V31.0901H59.9V31.0801Z" fill="white"/>
<path d="M92.62 31.0801H91.5L87.76 20.6101H78.29L74.58 31.0801H73.46L82.49 5.88013H83.57L92.6 31.0801H92.62ZM78.65 19.6001H87.4L83.04 7.33013L78.65 19.6001Z" fill="white"/>
<path d="M108.21 11.9701C108.21 8.3001 105.91 6.3501 102.81 6.3501C99.71 6.3501 97.19 8.6501 97.19 11.6801C97.19 14.7101 98.95 16.0701 102.16 16.9401L103.74 17.3701C108.35 18.6301 110.65 20.1801 110.65 24.3501C110.65 28.8901 106.98 31.6201 102.8 31.6201C98.62 31.6201 94.99 28.7401 94.99 23.5601H96.07C96.07 28.0601 99.09 30.6201 102.8 30.6201C106.72 30.6201 109.57 28.1401 109.57 24.3601C109.57 21.6201 108.53 19.6401 103.56 18.3801L101.87 17.9501C98.13 16.9801 96.11 14.9301 96.11 11.6901C96.11 7.9101 99.31 5.3501 102.81 5.3501C106.63 5.3501 109.29 7.7601 109.29 11.9701H108.21Z" fill="white"/>
<path d="M120.34 6.89013V31.0801H119.33V6.89013H113.1V5.88013H126.49V6.89013H120.33H120.34Z" fill="white"/>
<path d="M140.25 12.4701C140.25 10.4201 139.06 9.12008 137.12 9.12008C135.18 9.12008 133.84 10.4501 133.84 12.1401C133.84 13.8301 134.67 14.8001 137.12 15.4901L138.31 15.8101C142.52 16.9601 145.65 18.6501 145.65 23.7301C145.65 28.3001 142.05 31.5801 137.19 31.5801C132.33 31.5801 128.8 28.3401 128.8 23.1601H132.72C132.72 25.7901 134.63 27.8001 137.18 27.8001C139.92 27.8001 141.64 26.0401 141.64 23.7301C141.64 21.4201 140.2 20.3801 137.21 19.5501L136.09 19.2601C131.91 18.1101 129.93 15.7301 129.93 12.1301C129.93 8.03008 132.99 5.33008 137.09 5.33008C141.55 5.33008 144.11 7.78008 144.11 12.4601H140.22L140.25 12.4701Z" fill="white"/>
<path d="M169.55 31.0801H165.16L162.21 22.3001H154.65L151.59 31.0801H147.2L156.38 5.88013H160.66L169.55 31.0801ZM155.94 18.5201H160.91L158.46 11.2901L155.94 18.5201Z" fill="white"/>
<path d="M173.3 5.88013H180.07C184.46 5.88013 187.23 8.69013 187.23 12.6801C187.23 15.2001 186.22 16.8201 184.6 17.7601C186.83 18.7701 188.27 20.7801 188.27 23.7401C188.27 28.2001 185.03 31.0801 180.53 31.0801H173.29V5.88013H173.3ZM177.4 9.66013V16.3901H179.81C181.97 16.3901 183.05 15.0901 183.05 13.0101C183.05 10.9301 181.97 9.66013 179.81 9.66013H177.4ZM177.4 20.2801V27.1601H180.28C182.44 27.1601 183.95 25.8601 183.95 23.7401C183.95 21.6201 182.44 20.2801 180.28 20.2801H177.4Z" fill="white"/>
<path d="M193.06 31.0801V5.88013H205.66V9.66013H197.16V16.0701H205.66V19.8101H197.16V27.3301H205.66V31.0701H193.06V31.0801Z" fill="white"/>
<path d="M211.06 5.88013H218.76C223.3 5.88013 226.46 8.76013 226.46 13.2201C226.46 17.2901 223.76 19.6301 219.84 19.9901L226.89 31.0801H222.1L215.15 19.3801V31.0801H211.05V5.88013H211.06ZM215.16 9.80013V16.6401H218.51C220.71 16.6401 222.18 15.3401 222.18 13.2201C222.18 11.1001 220.7 9.80013 218.51 9.80013H215.16Z" fill="white"/>
<path d="M27.7 20.4101H26.56C26.45 20.4101 26.36 20.5001 26.36 20.6101V27.2601L23.62 28.6501C23.52 28.7001 23.48 28.8201 23.53 28.9201L24.05 29.9301C24.1 30.0301 24.22 30.0701 24.32 30.0201L27.71 28.3001H27.73C27.83 28.2701 27.9 28.1901 27.9 28.0901V20.6101C27.9 20.5001 27.82 20.4001 27.7 20.4001V20.4101ZM3.54 10.9101V14.7201C3.54 14.7201 3.54 14.7501 3.54 14.7601C3.52 14.8501 3.57 14.9401 3.65 14.9801L7.22 16.7901C7.32 16.8401 7.44 16.8001 7.49 16.7001L8.01 15.6901C8.06 15.5901 8.02 15.4701 7.92 15.4201L5.09 13.9801V11.7101L10.16 14.2901V21.4501C10.16 21.5601 10.25 21.6501 10.36 21.6501H11.5C11.61 21.6501 11.7 21.5601 11.7 21.4501V13.4101C11.7 13.3001 11.61 13.2101 11.5 13.2101H11.49L3.78 9.29006C3.68 9.24006 3.56 9.28006 3.51 9.38006L3.55 10.9601M7.45 28.6601L4.77 27.3001V20.6201C4.77 20.5101 4.68 20.4201 4.57 20.4201H3.43C3.32 20.4201 3.23 20.5101 3.23 20.6201V28.1001C3.23 28.1001 3.25 28.2001 3.28 28.2301C3.3 28.2601 3.33 28.2801 3.36 28.3001L6.76 30.0201C6.86 30.0701 6.98 30.0301 7.03 29.9301L7.55 28.9201C7.6 28.8201 7.55 28.7001 7.46 28.6501L7.45 28.6601ZM31.4 1.61006V0.110061C31.34 0.0100608 31.22 -0.0299392 31.12 0.0200608L20.67 5.33006L15.77 2.84006C15.7 2.81006 15.62 2.81006 15.56 2.86006L10.7 5.33006L0.32 0.0700608C0.22 0.0200608 0.09 0.0600608 0.04 0.160061L0 1.64006C0 1.50006 0 1.77006 0 1.64006V16.9701C0 16.9701 0.02 17.0701 0.05 17.1001C0.07 17.1401 0.1 17.1701 0.14 17.1901L6.6 20.4701V25.2001C6.6 25.3101 6.69 25.4001 6.8 25.4001H7.94C8.05 25.4001 8.14 25.3101 8.14 25.2001V19.7101C8.17 19.6201 8.13 19.5101 8.04 19.4701L1.54 16.1701V2.43006L9.92 6.68006L9.97 6.78006V11.1201C9.97 11.2301 10.06 11.3201 10.17 11.3201H11.31C11.42 11.3201 11.51 11.2301 11.51 11.1201V6.64006L14.89 4.92006V34.0001L11.5 32.2801V25.1101C11.5 25.0001 11.41 24.9101 11.3 24.9101H10.16C10.05 24.9101 9.96 25.0001 9.96 25.1101V33.0801C9.96 33.1701 10 33.2501 10.07 33.2801L15.63 36.1001C15.7 36.1301 15.77 36.1301 15.83 36.0901L21.35 33.2901C21.45 33.2401 21.49 33.1201 21.44 33.0201C21.44 33.0201 21.44 32.9801 21.44 32.9601V25.1101C21.44 25.0001 21.35 24.9101 21.24 24.9101H20.1C19.99 24.9101 19.9 25.0001 19.9 25.1101V32.3001L16.44 34.0601V4.92006L19.9 6.68006V11.1201C19.9 11.2301 19.99 11.3201 20.1 11.3201H21.24C21.35 11.3201 21.44 11.2301 21.44 11.1201V6.67006L29.84 2.40006V16.1401L23.33 19.4401C23.33 19.4401 23.25 19.5001 23.23 19.5401C23.2 19.5801 23.18 19.6301 23.18 19.6801V25.1901C23.18 25.3001 23.27 25.3901 23.38 25.3901H24.52C24.63 25.3901 24.72 25.3001 24.72 25.1901V20.4601L31.23 17.1601C31.32 17.1401 31.38 17.0501 31.38 16.9601V1.60006M28.29 10.0301V8.52006C28.25 8.42006 28.12 8.38006 28.02 8.43006L20.29 12.3601C20.29 12.3601 20.26 12.3801 20.25 12.3901C20.19 12.4301 20.15 12.4901 20.15 12.5601V20.5301C20.15 20.6401 20.24 20.7301 20.35 20.7301H21.49C21.6 20.7301 21.69 20.6401 21.69 20.5301V13.3801L26.73 10.8201V13.0901L23.76 14.6001C23.66 14.6501 23.62 14.7701 23.67 14.8701L24.19 15.8801C24.24 15.9801 24.36 16.0201 24.46 15.9701L28.15 14.1001C28.22 14.0701 28.26 14.0001 28.26 13.9201C28.26 13.9001 28.27 13.8801 28.27 13.8501V10.0201" fill="white"/>
</g>
<defs>
<linearGradient id="paint0_linear_719_109" x1="41.21" y1="18.4801" x2="226.9" y2="18.4801" gradientUnits="userSpaceOnUse">
<stop stop-color="white"/>
<stop offset="1"/>
</linearGradient>
<linearGradient id="paint1_linear_719_109" x1="41.21" y1="18.4801" x2="226.9" y2="18.4801" gradientUnits="userSpaceOnUse">
<stop stop-color="white"/>
<stop offset="1"/>
</linearGradient>
<linearGradient id="paint2_linear_719_109" x1="41.21" y1="18.4801" x2="226.9" y2="18.4801" gradientUnits="userSpaceOnUse">
<stop stop-color="white"/>
<stop offset="1"/>
</linearGradient>
<linearGradient id="paint3_linear_719_109" x1="41.21" y1="18.4801" x2="226.9" y2="18.4801" gradientUnits="userSpaceOnUse">
<stop stop-color="white"/>
<stop offset="1"/>
</linearGradient>
<linearGradient id="paint4_linear_719_109" x1="41.21" y1="18.4801" x2="226.9" y2="18.4801" gradientUnits="userSpaceOnUse">
<stop stop-color="white"/>
<stop offset="1"/>
</linearGradient>
<linearGradient id="paint5_linear_719_109" x1="41.2101" y1="18.4801" x2="226.9" y2="18.4801" gradientUnits="userSpaceOnUse">
<stop stop-color="white"/>
<stop offset="1"/>
</linearGradient>
<linearGradient id="paint6_linear_719_109" x1="41.21" y1="18.4801" x2="226.9" y2="18.4801" gradientUnits="userSpaceOnUse">
<stop stop-color="white"/>
<stop offset="1"/>
</linearGradient>
<linearGradient id="paint7_linear_719_109" x1="41.2099" y1="18.4801" x2="226.9" y2="18.4801" gradientUnits="userSpaceOnUse">
<stop stop-color="white"/>
<stop offset="1"/>
</linearGradient>
<linearGradient id="paint8_linear_719_109" x1="41.21" y1="18.4801" x2="226.9" y2="18.4801" gradientUnits="userSpaceOnUse">
<stop stop-color="white"/>
<stop offset="1"/>
</linearGradient>
<linearGradient id="paint9_linear_719_109" x1="41.2101" y1="18.4801" x2="226.9" y2="18.4801" gradientUnits="userSpaceOnUse">
<stop stop-color="white"/>
<stop offset="1"/>
</linearGradient>
<clipPath id="clip0_719_109">
<rect width="226.9" height="36.13" fill="white"/>
</clipPath>
</defs>
</svg>
