<svg width="25" height="23" viewBox="0 0 25 23" fill="none" xmlns="http://www.w3.org/2000/svg">
<path d="M20.9714 22.2183C21.8294 22.3197 22.3572 22.1576 22.6404 21.5759C22.7833 21.2601 22.7843 20.9049 22.6432 20.5884C22.5021 20.272 22.2304 20.0201 21.8877 19.8881L14.2419 16.952L15.8149 16.1831L22.8916 19.1235C23.2373 19.267 23.6307 19.2782 23.9853 19.1544C24.3399 19.0307 24.6267 18.7823 24.7826 18.4638C24.9429 18.1239 24.9718 17.7435 24.8644 17.3863C24.85 17.338 24.8324 17.2905 24.8117 17.2441L24.9999 6.50701C25.0016 6.40751 24.9821 6.30867 24.9424 6.21613C24.9027 6.12359 24.8435 6.03917 24.7684 5.96768C24.6933 5.8962 24.6036 5.83906 24.5045 5.79952C24.4054 5.75997 24.2988 5.7388 24.1908 5.73722C24.0828 5.73561 23.9756 5.75363 23.8751 5.79022C23.7747 5.82682 23.6831 5.88129 23.6055 5.95052C23.5279 6.01975 23.4659 6.10238 23.423 6.1937C23.3801 6.28502 23.3571 6.38323 23.3554 6.48273L23.187 16.1813C20.1068 14.9365 16.973 13.8113 13.8966 12.5587C14.0081 12.5713 14.1202 12.5776 14.2325 12.5777C14.8761 12.5779 15.4993 12.3701 15.9938 11.9906C16.4883 11.6111 16.8227 11.0838 16.9388 10.5005C17.055 9.91729 16.9456 9.31498 16.6296 8.79839C16.3136 8.28181 15.811 7.88366 15.2094 7.67322C14.6077 7.46278 13.945 7.45338 13.3366 7.64665C12.7282 7.83992 12.2125 8.22362 11.8794 8.731C11.5463 9.23838 11.4168 9.83731 11.5135 10.4236C11.6101 11.0098 11.9267 11.5463 12.4083 11.9397C9.27544 10.6108 6.19905 9.15965 3.0662 7.82813L7.67609 1.16619C7.73417 1.08229 7.77375 0.988675 7.79256 0.890684C7.81137 0.792692 7.80904 0.692246 7.78572 0.595083C7.76239 0.49792 7.71852 0.405941 7.65661 0.324402C7.5947 0.242864 7.51597 0.173362 7.4249 0.119866C7.33345 0.0658278 7.23127 0.0290267 7.12429 0.011586C7.01731 -0.00585465 6.90764 -0.00358489 6.80162 0.0182593C6.6956 0.0401034 6.59532 0.0810908 6.50659 0.138854C6.41786 0.196617 6.34243 0.27001 6.28466 0.354793L1.44333 7.35048C1.16328 7.38383 0.896511 7.48041 0.666732 7.63165C0.436952 7.78288 0.251281 7.98407 0.126215 8.21735C-0.0295392 8.5359 -0.0416171 8.8984 0.0926416 9.22515C0.2269 9.5519 0.496501 9.81615 0.842158 9.95977L7.7316 12.8205L6.22633 16.3747L4.27136 18.1197C4.12593 18.2513 4.01155 18.4093 3.9354 18.5836C3.85925 18.7578 3.82295 18.9447 3.82878 19.1325C3.8346 19.3203 3.88243 19.505 3.96927 19.675C4.05611 19.845 4.18009 19.9966 4.33345 20.1204L6.86419 22.1558C7.15743 22.3912 7.54003 22.5098 7.92804 22.4856C8.31606 22.4614 8.67781 22.2963 8.93393 22.0267C9.18938 21.7565 9.31809 21.4039 9.29181 21.0464C9.26553 20.6889 9.08642 20.3556 8.79376 20.1196L7.45595 19.0438L7.88213 18.6623H10.744L20.9714 22.2183Z" fill="#444444"/>
</svg>
