<svg width="37" height="32" viewBox="0 0 37 32" fill="none" xmlns="http://www.w3.org/2000/svg">
<path d="M33.1429 32H3.42857C1.535 32 0 30.465 0 28.5714V3.42857C0 1.535 1.535 0 3.42857 0H33.1429C35.0364 0 36.5714 1.535 36.5714 3.42857V28.5714C36.5714 30.465 35.0364 32 33.1429 32ZM9.14286 6.28571C7.56493 6.28571 6.28571 7.56493 6.28571 9.14286C6.28571 10.7208 7.56493 12 9.14286 12C10.7208 12 12 10.7208 12 9.14286C12 7.56493 10.7208 6.28571 9.14286 6.28571ZM9.14286 13.1429C7.56493 13.1429 6.28571 14.4221 6.28571 16C6.28571 17.5779 7.56493 18.8571 9.14286 18.8571C10.7208 18.8571 12 17.5779 12 16C12 14.4221 10.7208 13.1429 9.14286 13.1429ZM9.14286 20C7.56493 20 6.28571 21.2792 6.28571 22.8571C6.28571 24.4351 7.56493 25.7143 9.14286 25.7143C10.7208 25.7143 12 24.4351 12 22.8571C12 21.2792 10.7208 20 9.14286 20ZM29.7143 10.2857V8C29.7143 7.52664 29.3305 7.14286 28.8571 7.14286H14.5714C14.0981 7.14286 13.7143 7.52664 13.7143 8V10.2857C13.7143 10.7591 14.0981 11.1429 14.5714 11.1429H28.8571C29.3305 11.1429 29.7143 10.7591 29.7143 10.2857ZM29.7143 17.1429V14.8571C29.7143 14.3838 29.3305 14 28.8571 14H14.5714C14.0981 14 13.7143 14.3838 13.7143 14.8571V17.1429C13.7143 17.6162 14.0981 18 14.5714 18H28.8571C29.3305 18 29.7143 17.6162 29.7143 17.1429ZM29.7143 24V21.7143C29.7143 21.2409 29.3305 20.8571 28.8571 20.8571H14.5714C14.0981 20.8571 13.7143 21.2409 13.7143 21.7143V24C13.7143 24.4734 14.0981 24.8571 14.5714 24.8571H28.8571C29.3305 24.8571 29.7143 24.4734 29.7143 24Z" fill="white"/>
</svg>
