<?xml version="1.0" encoding="UTF-8" standalone="no"?>
<!-- Created with Inkscape (http://www.inkscape.org/) -->

<svg
   width="120"
   height="120"
   viewBox="0 0 120 120"
   version="1.1"
   id="svg1"
   xml:space="preserve"
   xmlns="http://www.w3.org/2000/svg"
   xmlns:svg="http://www.w3.org/2000/svg"><defs
     id="defs1" /><g
     id="layer1"><path
       id="path1"
       style="display:inline;fill:#4752a8;fill-opacity:1;stroke-width:3.94531;stroke-linejoin:round"
       d="m 61.539282,0.00146568 c 11.684066,0.299688 19.221617,13.30256732 19.221617,13.30256732 0,0 14.703296,-3.114909 22.753271,5.358884 8.04997,8.473792 4.1854,22.998072 4.1854,22.998072 0,0 12.59937,8.194227 12.29969,19.878293 -0.29969,11.684066 -13.30257,19.221617 -13.30257,19.221617 0,0 3.11491,14.703296 -5.35889,22.753271 -8.473787,8.04997 -22.998067,4.1854 -22.998067,4.1854 0,0 -8.194227,12.59937 -19.878293,12.29969 -11.684066,-0.29969 -19.221617,-13.30257 -19.221617,-13.30257 0,0 -14.703296,3.11491 -22.753269,-5.35889 -8.0499723,-8.473787 -4.185401,-22.998067 -4.185401,-22.998067 0,0 -12.59937334,-8.194227 -12.29968732,-19.878293 C 0.30115368,46.777374 13.304033,39.239823 13.304033,39.239823 c 0,0 -3.114909,-14.703296 5.358884,-22.753269 8.473792,-8.0499723 22.998072,-4.185401 22.998072,-4.185401 0,0 8.194227,-12.59937334 19.878293,-12.29968732 z" /><path
       id="path3"
       style="display:inline;fill:#5364b6;fill-opacity:1;stroke-width:3.94531;stroke-linejoin:round"
       d="m 61.537647,0 c -11.684055,-0.29968405 -19.87683,12.302135 -19.87683,12.302135 0,2e-6 -14.523849,-3.8657742 -22.997633,4.18419 -8.473786,8.049965 -5.359308,22.754904 -5.359308,22.754904 0,2e-6 -13.004188,7.537792 -13.303876,19.221847 -0.29968405,11.684054 12.302135,19.876829 12.302135,19.876829 0,0 -0.38061,1.57662 -0.654983,3.87211 a 62.835479,62.835479 0 0 0 13.86639,1.710662 62.835479,62.835479 0 0 0 62.832203,-62.836053 62.835479,62.835479 0 0 0 -0.562517,-8.295178 c -3.996449,-0.07532 -7.023735,0.51243 -7.023735,0.51243 0,0 -7.537792,-13.004188 -19.221846,-13.303876 z" /><path
       id="rect3"
       style="display:inline;fill:#ffffff;fill-opacity:1;stroke-width:2;stroke-linejoin:round"
       d="m 68,48 a 4,4 45 0 1 4,4 v 20 a 4,4 135 0 1 -4,4 H 56 a 4,4 45 0 1 -4,-4 4,4 135 0 1 4,-4 h 8 V 52 a 4,4 135 0 1 4,-4 z"
       transform="matrix(1.5278816,1.5278816,-1.5278816,1.5278816,60.000361,-138.62425)" /></g></svg>
